<svg id="Layer_1" data-name="Layer 1" xmlns="http://www.w3.org/2000/svg" viewBox="0 0 355.95 401.2">
  <title>link</title>
  <g>
    <path d="M161.35,343c4.8-4.1,9.82-8,14.34-12.39,3.28-3.18,5.86-7.07,8.83-10.57a67.85,67.85,0,0,1,4.93-5.18c2.84-2.7,5.32-5.34,6.85-9.32,1.06-2.74,5.08-4.4,7.89-6.38,1.78-1.25,4.3-1.78,5.58-3.37,4.1-5.08,7.68-10.58,11.66-15.76,2.5-3.26,5.36-6.24,8.07-9.33,5.62-6.42,11.29-12.81,16.86-19.28,1.26-1.46,2-3.39,3.35-4.76a19,19,0,0,1,5.07-3.77c4.52-2.2,9.75-3.36,13.61-6.34,3.49-2.69,5.65-7.17,8.19-11,3.25-4.88,6.74-9.68,9.32-14.91,3.4-6.91,7.22-13.71,8.76-21.44.9-4.49-2.19-6.87-4.72-9.21-2-1.81-4.88-2.61-7.43-3.71-4.67-2-9.24-4.48-14.12-5.7-5.86-1.46-12-1.77-18-2.66-1.63-.24-3.54-.35-4.78-1.26-5.84-4.31-11.58-8.78-17.17-13.42-2.47-2.05-2.15-12,.29-14.07,4-3.37,7-8.29,13.14-8.21,5.32.07,10.2.54,14.62,4.44,3,2.65,7.24,3.94,11,5.69,8.47,3.94,16.91,8,25.53,11.58,5.24,2.2,10.83,3.55,16.16,5.55,4.75,1.78,9.56,4,11.77,8.84a96.31,96.31,0,0,1,5.8,16.48c.66,2.66,0,6-.93,8.66-2.79,7.86-5.36,15.92-9.28,23.23-5.47,10.18-11.94,19.84-18.28,29.53-3.88,5.93-8.38,11.46-12.48,17.26-2.87,4.06-5.07,8.69-8.39,12.32-6.56,7.16-11,16.27-20.09,21.2-4,2.14-7,6.08-10.33,9.29-4.69,4.47-9.63,8.74-13.89,13.59-5.38,6.14-10.17,12.8-15.25,19.21a32,32,0,0,1-2.9,3.06c-5.53,5.34-11.16,10.57-16.58,16-4.21,4.23-7.8,9.14-12.34,13-5.42,4.55-11.61,8.18-17.37,12.33a75.27,75.27,0,0,0-8.87,7.13c-4.86,4.78-11,6.65-17.27,8.3-6.86,1.81-13.86,3.14-20.8,4.63a15.06,15.06,0,0,1-2.91.22c-8,.13-15.93.28-23.89.31a17.46,17.46,0,0,1-4.09-.82c-1.9-.47-3.91-1.71-5.65-1.39C72,403,64,393.33,54.23,387.85c-3.36-7.05-10.22-12-11.92-20.08a9.74,9.74,0,0,0-1.72-4.24c-7.35-8.61-7.68-18.8-4.92-28.68A370.28,370.28,0,0,1,50,293c3.92-9.48,10.42-17.87,14.8-27.21,4.9-10.45,14-16.5,22-23.85,3.48-3.2,5.91-7.59,9.56-10.51,3.24-2.59,7.36-4.88,11.37-5.52,5.16-.81,10.07,1.73,14.2,5,3.59,2.87,5.29,12.54,4.2,17.3-1.58,6.9-7.29,10.37-11.3,15.27-1.32,1.61-2.62,3.24-3.86,4.92-3.33,4.48-5.83,10.11-10.15,13.17-4.06,2.87-6,6.78-9.13,9.9C86.13,297.1,83.88,304,81.42,310.8a173.64,173.64,0,0,0-7.21,27c-1.6,8.48,6.61,22.12,14.93,24.36a121.09,121.09,0,0,0,27.16,4.47c5.42.18,11.24-2.37,16.35-4.81a206,206,0,0,0,20.7-12c2.95-1.85,5.4-4.5,8.07-6.79Z" transform="translate(-34.08 -1.58)"/>
    <path d="M202.15,68.61C208,63.12,214,57.75,219.64,52.07c2.65-2.66,4.59-6,7-8.9q6.37-7.49,13-14.75c2-2.18,4.06-4.49,6.56-5.94,1.71-1,4.29-1,6.38-.7a15.26,15.26,0,0,0,9.14-1.66c4.37-2,9.37-2.7,14.12-3.89,2.44-.61,5-.73,7.33-1.67,4.12-1.68,8-4.06,12.11-5.66,2.38-.92,5.18-.67,7.69-1.32C309.2,5.95,315.31,4,321.51,2.4a26.48,26.48,0,0,1,7.22-.81,155.9,155.9,0,0,1,17.67,1c8,1.13,16,2.79,23.91,4.62,1.29.3,1.85,3,3.19,4,5.29,3.88,6.73,9.7,8.55,15.48A144.84,144.84,0,0,0,388.5,44c2.5,5.42,1.5,10.59,0,15.78-2.11,7.52-4.36,15-6.94,22.37-2.3,6.54-6.89,11.65-11.5,16.71-4.31,4.73-8.43,9.63-12.61,14.46-.36.42-.49,1.13-.91,1.4-6.33,4.11-9.39,10.95-13.52,16.78-3.38,4.77-6.41,9.6-11.74,12.35-5.18,2.66-10.36,5.22-15.89.43-2.89-2.51-6.54-4.23-9.15-7-9.47-9.93-4-22.6,4.29-29.69,4-3.42,8.93-5.93,11.38-11.34,1-2.14,4.92-2.79,7.26-4.47,4-2.87,7.84-6,11.63-9.11a9,9,0,0,0,1.81-3.17c.23-.48,0-1.23.28-1.64,3.52-5,7.33-9.81,10.56-15,1.74-2.78,3.35-6.11,3.53-9.27a61.89,61.89,0,0,0-1.15-17c-.42-1.85-4.47-3.75-7.06-4.07-4.93-.61-10,0-15-.06-9-.07-17.81.58-26.55,3.16-5.22,1.54-11.3.65-16.19,2.73-6.77,2.88-15.66,3-18.93,11.84a7.42,7.42,0,0,1-3.57,3.43c-6.25,3.12-12.22,6.22-17.25,11.55-4,4.23-10.49,6-14.81,10a226.27,226.27,0,0,0-20,21.5c-5.5,6.63-10.22,13.92-15.17,21-4.39,6.27-8.62,12.65-13,19a10.16,10.16,0,0,1-2,2.18c-4.69,3.74-7.11,9-9.45,14.24-2,4.43-4,8.84-5.65,13.39-2.63,7.34-2.85,15.36,1.95,21.21,3.3,4,9.66,5.79,14.92,7.91a98.35,98.35,0,0,0,16.78,5.18c5.75,1.19,11.76,1.06,17.55,2.12,4.46.81,9.11,1.92,13,4.11,3.29,1.85,5.82,5.26,8.3,8.3s2.14,11-1,14.49c-3.82,4.14-8.24,7.29-14.49,7.58-10.69.49-20.86-2.09-31.26-3.58a60.6,60.6,0,0,1-18.84-5.78c-4.83-2.4-10.15-3.81-15.25-5.68a11.36,11.36,0,0,1-1.91-.88c-9.75-5.81-18-13.45-23.65-23.13-5.2-8.85-4.56-19-2.43-28.7,2.1-9.57,7.14-17.69,13.23-25.35,3.58-4.5,5.92-9.95,9.11-14.78,3.7-5.6,7.68-11,11.59-16.47,3.66-5.1,7.43-10.13,11.08-15.23,4.87-6.79,9.62-13.67,14.54-20.43,2.28-3.14,4.84-6.07,7.27-9.1Z" transform="translate(-34.08 -1.58)"/>
  </g>
</svg>
