<svg id="Layer_1" data-name="Layer 1" xmlns="http://www.w3.org/2000/svg" viewBox="0 0 1352.35 1180.51">
  <title>logo</title>
  <g>
    <path d="M194.12,480.47c.86-10.26,1-20.64,2.73-30.76,2.54-15.22.18-29.68-3.68-44.33-6.24-23.72-11.37-47.83-10.23-72.46,1.19-25.67,4.82-51,18.11-74,2.71-4.68,4.45-10,6-15.27,5.16-17.7,12.35-34.54,22.64-49.78,7.69-11.39,16.43-22.11,25.11-32.8,4.48-5.52,10.75-8.57,17.61-10.84a18,18,0,0,0,9-7.07c6.81-11,12.8-22.59,19.31-33.83,14.35-24.75,35.53-41,61.79-52.12,19.7-8.37,39.2-16.56,60.91-14.84,13.35,1.06,25.75,1.25,38.53-4.46,8.21-3.67,18.23-3.27,27.43-4.77a15,15,0,0,0,4.7-1.41c14.81-8,31.05-10.62,47.46-12.58,38.9-4.65,77.87-2.37,116.82-1a42.92,42.92,0,0,1,9.86,1.5c32.88,9.1,66.27,16.73,98.43,27.91C803.8,60.5,841.08,73.83,875.18,94.21a38.43,38.43,0,0,0,8,4c20.56,6.39,37.05,19.11,53.11,32.88,12,10.28,26,18.34,37.25,29.26,30.86,29.87,58.16,62.37,76.5,102.09a209.68,209.68,0,0,1,18.15,63.87c2.31,19.34,5.62,38.58,7.15,58,.88,11.19-.66,22.6-1.52,33.88-1.37,17.93-3.07,35.83-4.69,53.73-.58,6.46-1.69,12.9-1.93,19.37-.24,6.74.61,13.51.36,20.24-.19,5.26-.57,10.74-2.18,15.69-7.88,24.21-16.12,48.29-24.45,72.34-1,3-3.47,5.42-5.15,8.19a16.68,16.68,0,0,0-1.79,4c-3.84,13.62-7.52,27.28-11.49,40.86-.87,3-.37,5.14,2.25,6.21,7.19,2.93,14.5,5.57,21.77,8.27,7,2.59,14,5.1,20.94,7.67,3.26,1.2,6.41,2.87,9.77,3.61,13.28,2.93,24.59,9.92,36,16.74,14.44,8.59,29.3,16.51,43.44,25.55,16,10.22,31,21.95,47.14,31.89,7.92,4.88,17.39,7.24,26.19,10.68,21.66,8.48,43.31,17,65,25.37,9.56,3.68,18.43,8.23,26.13,15.25,3.57,3.26,8.45,5.18,12.93,7.31,5,2.36,10.28,4,15.11,6.51,2,1.06,4.35,3.77,4.31,5.68s-2.73,4.21-4.8,5.09c-4.41,1.88-9.15,3-13.78,4.33-5.83,1.68-7,3.6-5,9.21,1.27,3.53-.19,6.08-3,7.57-5.42,2.86-11.12,5.17-16.6,7.91a33.06,33.06,0,0,0-6.44,4.26c-9.14,7.7-17.35,17-27.5,22.89-10.6,6.2-22.83,10-34.73,13.51-31.87,9.4-64.55,14.8-97.63,17.56-23.38,2-46.84,4.88-70.2,4.42-26.07-.5-52.17-3.56-78.07-6.94-24.23-3.16-43.93-16.74-62.67-31.46-9-7.09-17.43-15-26.47-22-5.61-4.39-11.8-8.06-17.9-11.79a6,6,0,0,0-4.55-.16c-16.61,6.13-31.66,14.45-43.43,28.31-3.67,4.32-9.42,7.55-14.86,9.56-20.27,7.51-40.64,14.86-61.29,21.23-22.42,6.91-45.82,8.44-69.11,9.64-24.79,1.28-49.62,1.8-74.42,2.74-47.67,1.8-94.05-5.69-139-21.11a744.19,744.19,0,0,1-106.8-45.86c-11.88-6.29-25-10.24-36.74-16.77-20.39-11.35-40.84-23.5-54.35-43.12-19.79-28.74-35.24-59.54-44.69-93.68C227,652.93,214.72,607.14,204.3,560.84c-5.18-23-7-46.4-8.64-69.82-.24-3.49-.36-7-.54-10.48ZM1032.7,379.65l-1.24-.06c-.59-21-.92-42-1.88-63a145.27,145.27,0,0,0-3.37-25.21c-8.17-36.22-28-66.12-53.07-92.48C940.55,164.71,903,136.66,861.38,114.2,842.52,104,823.76,94.1,803.51,86.39,761.8,70.5,719,58.79,675.68,48.88c-29.37-6.72-59.53-6.4-89.53-7.18a82.32,82.32,0,0,0-36.31,7.2C534,55.89,518.24,63.25,500.93,66c-26.13,4.11-52.26,8.17-78.45,11.89a12.79,12.79,0,0,1-9.2-2.52c-6.1-5.39-12.23-5.17-19-2-2.72,1.26-5.41,2.59-8.19,3.69-37.41,14.77-63.87,41.4-82.54,76.36-1.72,3.22-1.85,7.27-3,10.84-.79,2.43-1.52,6.12-3.23,6.78-5.82,2.23-8.35,7.49-12.38,11.35-1.38,1.33-3.39,2-5.12,3-1.09.62-2.53,1-3.22,1.9-3.66,4.94-7.87,9.67-10.55,15.12-11.47,23.3-23,46.57-33.49,70.33-11.21,25.5-17,52.42-13.7,80.38,1.71,14.66,5.35,29.12,8.62,43.56,4.45,19.66,9.4,39.12,7.35,59.67-3.53,35.28.35,70.28,6.72,104.89,5.36,29.14,12.43,58,18.87,86.89,3.31,14.9,5.54,30.21,15.91,42.55,1.63,1.94,2.16,4.83,3.09,7.32,3.29,8.81,7.4,17.1,14.16,23.88,1.09,1.09,1.54,2.84,2.19,4.33,2.57,5.9,4.7,12,7.76,17.68,3.8,7,9.17,13.26,12.43,20.48,6.86,15.2,18.51,26.21,30.05,37.55,15.67,15.4,33.26,27.37,54.13,34.84S441,853.77,462.05,860.6s42.79,11.33,64.2,16.94c8.18,2.14,16.18,5.61,24.48,6.57,15.21,1.75,30.56,2.36,45.88,2.94,15,.57,30,1.62,44.92.48,27.89-2.14,55.65-5.9,83.49-8.65,22.92-2.26,45.28-7,65.81-17.42,21.65-10.94,42.49-23.5,63.65-35.41a20.27,20.27,0,0,0,4.78-3.59c14.28-15.11,28.75-30.06,42.61-45.54,7.31-8.16,13.35-17.44,20.28-26s13.33-17.06,16.23-27.82a12.48,12.48,0,0,1,2.55-4.22c4-5,8.62-9.65,12.17-15,13.47-20.24,27.48-40.36,35.39-63.55,6.87-20.14,12.56-40.74,17.78-61.38,8.75-34.66,19.68-68.88,21.25-105.06C1028.9,442.5,1031,411.08,1032.7,379.65Zm259.76,444.18c-11.62-6.23-21.82-12.84-34.35-14.21-6.73-.74-13.38-2.27-20.09-3.28-1.69-.25-3.79-.4-5.17.36-12.71,7-26.66,5.47-40.1,5.09-16.44-.47-32.83-2.82-49.23-4.43-35-3.43-69.89-7-103.76-17.11-12.09-3.62-24.32-7-36.7-9.39-10.64-2.06-21.15-3.5-30.86-9.07-9.09-5.21-17.63-2-21.7,7.68-4.22,10.05-11.16,17.85-19.45,24.27-5.9,4.57-7.12,10.17-6.55,16.64.33,3.76,1.75,7.42,2.57,11.15a21.82,21.82,0,0,1,.86,5.83c-.34,5.7,1.68,10.37,6.47,13.19a117.77,117.77,0,0,0,16.94,8.35c8,3.14,16.35,5.52,24.51,8.35,7.37,2.56,14.52,5.88,22,7.81,14.65,3.77,29.34,8.31,44.29,9.79,23,2.26,46.22,2.09,69.34,3.17,18.16.85,35.47-1.9,51.68-10.56a113.74,113.74,0,0,1,13.69-6c25.85-9.68,51.79-19.12,77.61-28.89C1267.38,837.65,1280,832.1,1292.46,823.83ZM1044.21,692.25c-27.87.11-49,9.88-61.33,34.87-5.93,12.05-6,12.4,7.14,16.72,19.25,6.35,38.38,13.4,58.06,18,25.55,5.94,50.6,12.81,74.28,24.24a27.09,27.09,0,0,0,9,2.59q47.47,4.44,95,8.5c1.44.12,3-.7,4.45-1.08-1-1.09-1.86-2.51-3.1-3.22-11.7-6.69-23.74-12.82-35.15-20-23.55-14.74-46.79-30-70.11-45.06a137,137,0,0,1-12.2-8.63C1090.65,703.23,1069.05,692.34,1044.21,692.25Z" transform="translate(-16.07 -16.39)"/>
    <path d="M265.08,954.49c-.85,10.74-1.22,21.22-2.73,31.53-.55,3.77-3.09,7.88-5.93,10.57-9.66,9.14-15.23,19.85-16.15,33.25a21.07,21.07,0,0,1-19.61,19.25c-6.63.38-10.82-1.76-11.67-8.22-.89-6.75.07-13.78.48-20.67.17-3,1-5.86,1.73-10-2.28,1.18-3.94,1.71-5.19,2.74-12.78,10.55-28.29,11.89-41.73,2.08-23.74-17.33-28.69-37.12-23.17-63.55,5.39-25.78,20-46.17,37.44-64.89a125.58,125.58,0,0,1,35.6-27.07c13-6.52,28.81-3.12,39.9,8.65,9.8,10.39,11.73,24.79,3.81,37.24-2.95,4.63-8.32,7.72-13.61,12.42-3.35-5.76-6-10.26-8.58-14.81-.57-1-.74-2.21-1.22-3.27-4.78-10.64-14.1-12.95-23-5.35-6.57,5.62-12.85,11.61-19,17.67-4.87,4.77-9.65,9.68-14,14.9a38.56,38.56,0,0,0,1.91,51.43c5.19,5.41,10.68,6.06,17,2,12.91-8.26,13.13-9.43,2.59-20-5.37-5.38-9.37-11.13-6.18-19,3.43-8.49,10.43-12.37,19.18-12.91a29.78,29.78,0,0,1,22.78,8.4c2.19,2,4.23,4.24,6.33,6.38C250.24,951.63,253.12,953.05,265.08,954.49Z" transform="translate(-16.07 -16.39)"/>
    <path d="M549.18,1196.87c-8,.4-14.52-3.26-21.2-6.78-13.51-7.12-24.31-16.81-30.71-30.95-6.13-13.53-5.24-27.13-.6-40.82,1.33-3.93,2.89-7.86,3.56-11.91,2.93-17.68,11.78-32.24,23.27-45.5,2.94-3.4,5.34-7.43,8.75-10.23,8.55-7,17.08-14.29,26.53-19.91,4.94-2.94,11.8-2.77,17.85-3.69s11.93-1.05,17.78-2.15c12.92-2.43,24.13,0,33,10.28a21.84,21.84,0,0,0,4,3.69,21.3,21.3,0,0,1,9.09,13.84c5.3,27,2,53.06-12.72,76.39-10.33,16.4-22.39,31.86-34.93,46.67C581.77,1189,566.54,1195.69,549.18,1196.87Zm30-141.84c-4.64,1.17-12,1.66-17.93,4.74-22.76,11.72-36.77,30-39.52,56.14-.9,8.54.47,16.47,5.54,23.17,17.26,22.8,31.49,26.12,53.37,6.44A120.77,120.77,0,0,0,598,1126.24c12.35-17.22,18.58-36.12,13.77-57.67-1.5-6.74-5.72-10-11.83-11.06S587.72,1056,579.23,1055Z" transform="translate(-16.07 -16.39)"/>
    <path d="M791.23,1047.56c-.31,9.44-5.69,19.38-14.54,27.35-5.42,4.88-11.51,9-17.47,13.29-6.88,4.89-8.23,7.14-6,15q8.28,28.76,17.21,57.34c2.36,7.57,1.84,10.19-4.8,14.78-15.4,10.63-22.89,8.56-29-9.17-3-8.58-3.9-17.83-6.09-26.69-2.91-11.77-5.95-23.53-9.35-35.17-1.81-6.18-4.82-7.08-14.24-6.62-5.32.26-6.55,3.64-7.28,7.86-1.86,10.84-3.89,21.64-9.08,31.52-1.59,3-1,5.7.44,8.88,4.68,10.66,2.24,21.41-1.87,31.46-2.21,5.4-8.22,7.6-14,8.37-4.49.59-7.33-2.17-7.43-6.25a129.07,129.07,0,0,1,1.19-19.28c2.08-16.17,4-32.39,6.93-48.42,1.76-9.77,5.28-19.21,7.81-28.85,4.34-16.56,8.51-33.17,12.8-49.74a35.19,35.19,0,0,1,1.89-5.15c2.57-5.91,5.16-7.36,11.44-5.53,3.76,1.1,6.64.73,9.59-1.94a14.88,14.88,0,0,1,6.09-3.28c13.64-3.47,27.42-5.66,41.48-2.66C782.72,1018,791.06,1028.44,791.23,1047.56Zm-64.42,27.06a75.07,75.07,0,0,0,36.91-10.94c4-2.37,5.73-5.51,5.23-10.3s.08-9.9-.54-14.76c-.25-2-2.07-4.76-3.77-5.29a31,31,0,0,0-12.21-1.59c-10.05,1.13-20.06,2.83-30,4.83a8.39,8.39,0,0,0-5.36,4.81c-2.63,8.56-4.63,17.31-6.79,26-.85,3.44.55,5.46,4.14,5.85C718.57,1073.68,722.69,1074.15,726.81,1074.62Z" transform="translate(-16.07 -16.39)"/>
    <path d="M484.85,957.32c1.9,8.53,2.56,16.07-3.16,23.49-11.06,14.37-20.9,29.7-32.33,43.74-7.18,8.82-16.17,16.22-24.69,23.87-4.22,3.79-7.45,7.8-9,13.35-5.41,18.86-11.07,37.65-16.63,56.46a36.72,36.72,0,0,1-15.35,20.87c-5.87,3.88-14.87,1.65-18.16-4.51a18.79,18.79,0,0,1-1.73-14.93c7.32-23.85,14.4-47.78,21.91-71.57a44.64,44.64,0,0,0-1.24-31.72c-7.21-17.15-11-35.21-14.53-53.33-2.2-11.31,9.53-26,21-26.83,5.12-.38,8.87,2.38,10.8,6.64a99,99,0,0,1,5.32,16c4,15.3,7.64,30.67,11.53,46a20.84,20.84,0,0,0,2.17,4.22c1.33-.82,2.93-1.39,4-2.49,12.49-13.39,25.2-26.59,37.19-40.41C468.2,958.84,476.22,958.29,484.85,957.32Z" transform="translate(-16.07 -16.39)"/>
    <path d="M987.1,1122.63c.39,8.15,1,16.3,1.1,24.46.09,7.82-8.94,14.72-16.62,13.09-4.92-1-8.32-4.54-8.85-10.16-.65-6.9-.57-13.86-1.09-20.77-2.05-27.4-4.8-54.76-6-82.2-.35-8.06,3.09-16.5,5.85-24.39,1.32-3.77,5.71-3.35,9.2-1.64a36.35,36.35,0,0,1,16.19,15.72c8.19,14.87,16.23,29.86,25.22,44.25,4.52,7.24,10.89,13.35,16.64,19.78,1.05,1.18,3.87,2.44,4.56,1.92a6.91,6.91,0,0,0,2.47-5c-.32-9.31-.82-18.63-1.67-27.91-1.4-15.23-4.24-30.4-1.49-45.76.09-.49.11-1,.19-1.49.72-4.34,1.35-9,6.62-10,3.17-.59,8.87,5.25,9.71,9.53,1.4,7.18,2.84,14.38,3.76,21.63q5.16,40.6,9.94,81.24a48.44,48.44,0,0,1,.15,10c-.75,8.35-4.91,14.49-12.9,17.43s-15.33,1.87-21.53-4.57c-7.36-7.64-15.32-14.57-19.34-25-2.5-6.51-8.34-10.72-15.16-12.91-5.18-1.67-7.11-.15-7.16,5.31,0,2.5,0,5,0,7.5Z" transform="translate(-16.07 -16.39)"/>
    <path d="M1106.62,1049.58c.62,14.64,4.45,28.3,13.1,39.88,14.12,18.9,25.86,20.52,46.56,11.82,5.63-2.37,10.27-7.15,15.27-10.94,1.84-1.39,3.31-3.28,5.15-4.67,6.67-5,8.55-14.56,3.37-21.09-1.52-1.91-5.13-3.17-7.7-3-9.13.44-18.22,1.61-27.33,2.48-2,.19-4,.39-6,.4-6.89.06-10-2.13-10.51-7.31a11,11,0,0,1,9-12c2.12-.43,4.37-.28,6.42-.88,3.63-1.07,7.71-1.78,10.62-4,11.12-8.28,24.2-9.78,37.17-10.89,9.56-.81,17.45,3.81,22.78,12q10.26,15.65,20.17,31.53c5.41,8.7,4.94,14.14-1.19,18.92-8.22,6.41-15.57,6.06-22.68-1.09-.82-.83-1.55-1.74-2.38-2.56-4.31-4.28-9.75-3.81-12.18,1.76-8.23,18.81-23.73,28.5-42.2,34.69-5.52,1.85-11,3.82-16.59,5.47-8.87,2.61-17,1.25-24.49-4.52a145.37,145.37,0,0,0-15.42-10.11c-5-2.92-8.81-6.84-10.23-12.36-4.07-15.77-8.15-31.55-11.56-47.46-3-14,2.65-26,10.57-37.2s18.74-16.49,32.34-14.16c5.22.89,10.43,3.38,15,6.18,4.76,2.92,4.35,9-.39,12-7.62,4.78-15.46,8.36-24.91,4.89-4.7-1.73-8.23.54-9.25,5.51C1108,1038.36,1107.43,1044,1106.62,1049.58Z" transform="translate(-16.07 -16.39)"/>
    <path d="M63.84,973.78c-21-1.12-33.63-11.56-41.72-28.88-7.41-15.86-8.5-31.21-.62-47.49C29,881.86,33.84,865,42,849.79c12.15-22.59,27.3-43.37,44.23-62.74a21.38,21.38,0,0,1,6.2-5c1.6-.81,4.34-1.18,5.59-.32,1,.69,1.13,3.69.65,5.37-5.84,20.15-18,37-28.66,54.67S49.63,877.45,44.84,897.6c-3.3,13.91.51,26.25,11,35.9,11.27,10.35,31.1,6.69,40.62-7.09,12-17.4,23.74-35,35.95-52.28,7-9.92,14.5-19.52,22.24-28.89a21.68,21.68,0,0,1,9.32-6.06c2.19-.77,6.16-.2,7.51,1.36s1.65,5.65.63,7.76c-7.25,14.94-14,30.29-22.78,44.29-9.63,15.3-21.36,29.28-32.13,43.88a74.36,74.36,0,0,0-6.12,9.12C100.71,965.15,83,971.78,63.84,973.78Z" transform="translate(-16.07 -16.39)"/>
    <path d="M251.55,1058.8c.88-2.5,2.25-7.46,4.32-12.1,16.28-36.63,32.8-73.16,49-109.83a57.77,57.77,0,0,1,24.93-27.66c3.7-2.11,6.13-1.37,8.14,2.31,3.79,6.95,5.43,13.61,1.91,21.59-12.6,28.62-24.57,57.51-36.94,86.22-3.68,8.55-7.8,16.91-11.86,25.29-1.57,3.23-1.13,5.39,2.43,6.62,1.25.43,2.73.74,3.61,1.6,9.83,9.55,22.86,12.71,35.05,17.3,16.24,6.12,18.85,10.67,13,26.91a76.32,76.32,0,0,1-5.68,12.18c-4,6.93-9.33,9.49-16.88,6.8-20.69-7.4-41.43-14.88-58-30.22C257.41,1079.18,251.73,1071.78,251.55,1058.8Z" transform="translate(-16.07 -16.39)"/>
    <path d="M901.28,1177.56c-1.39-1.73-3.75-3.59-4.67-6-3.45-9-6.3-18.23-9.63-27.28-2.74-7.46-4.55-8.58-12.58-8.6-7.33,0-14.66.17-22,.11-5.07,0-8.08,2.32-9.5,7.11-2.17,7.34-4.53,14.62-6.69,22-2.42,8.22-8.79,11.94-16.32,13.79-5.77,1.42-10.32-5.07-8.7-12.35,1.77-8,4.11-15.78,6-23.71a705.26,705.26,0,0,1,37.41-112.08c3.12-7.32,7.13-8.93,14.07-5.1,6.39,3.54,10.28,9.28,13.41,15.67a602.53,602.53,0,0,1,35.8,92.52c2.1,7,4.54,13.93,7.27,20.71,1.71,4.25.79,7.28-1.85,10.85C918.08,1172.23,910.83,1175.28,901.28,1177.56ZM858.49,1112c3.81-.28,7.62-.51,11.42-.85,5.07-.45,7-2.94,5.31-7.71-2.54-7-5.49-13.87-8.58-20.65-.72-1.59-2.74-3.62-4.1-3.59s-3.17,2.26-3.78,3.89c-2.52,6.67-4.8,13.43-6.89,20.24S851.44,1112.26,858.49,1112Z" transform="translate(-16.07 -16.39)"/>
    <path d="M1312.61,1082.82c-3.54-1.37-6.29-1.82-8.28-3.3-10.33-7.67-19.49-16.12-25.18-28.3-10.22-21.89-22.93-42.43-37-62.05a44.75,44.75,0,0,1-8.32-24.19c-.27-4.62,1-8.63,4.71-11.53,8.65-6.74,17.4-13.36,26.08-20.06,2.5-1.93,4.91-4,7.35-6,1.67-1.37,3.12-3.23,5-4.07a82.45,82.45,0,0,0,17.47-10.1c4-3.12,11.65-.66,14.2,3.51,2.11,3.45.84,8-4,11.6-12.28,9.17-24.73,18.09-37.13,27.09-7.71,5.6-9,9.94-5.19,18.81,2.24,5.18,4.67,10.31,7.4,15.24,3.39,6.13,6,6.38,11.46,2.22,7.29-5.52,14.66-11,22.16-16.19,6.5-4.54,12.39-4.45,18-.21,3.87,2.92,4.53,6.18,1.28,9.62-8.31,8.81-16.15,18.17-27.25,23.88-4.62,2.37-6.34,8.52-3,14.56a203.18,203.18,0,0,0,15.8,23.59c1.16,1.52,5.42,2.06,7.5,1.21,3.4-1.4,6.12-4.42,9.24-6.58,7.35-5.07,14.51-10.5,22.25-14.9,5.56-3.16,16.1.4,19.73,5.68,2.42,3.52,1.78,7.26-.82,10.16a140.59,140.59,0,0,1-12.46,12.17c-8.28,7.2-16.46,14.6-25.32,21C1323.68,1079.13,1317.69,1080.61,1312.61,1082.82Z" transform="translate(-16.07 -16.39)"/>
    <path d="M1032.7,379.65c-1.75,31.43-3.81,62.85-5.17,94.3-1.57,36.18-12.5,70.4-21.25,105.06-5.21,20.65-10.9,41.24-17.78,61.38-7.91,23.18-21.92,43.3-35.39,63.55-3.55,5.33-8.14,10-12.17,15a12.48,12.48,0,0,0-2.55,4.22C935.49,733.9,929,742.5,922.16,751s-13,17.79-20.28,26c-13.86,15.49-28.33,30.43-42.61,45.54a20.27,20.27,0,0,1-4.78,3.59c-21.16,11.91-42,24.47-63.65,35.41-20.53,10.38-42.89,15.16-65.81,17.42-27.85,2.74-55.61,6.5-83.49,8.65-14.88,1.14-30,.09-44.92-.48-15.31-.58-30.67-1.19-45.88-2.94-8.3-1-16.3-4.42-24.48-6.57-21.42-5.61-43.19-10.11-64.2-16.94S421,844.13,400.16,836.68,361.69,817.24,346,801.84c-11.54-11.34-23.19-22.35-30.05-37.55-3.26-7.22-8.62-13.46-12.43-20.48-3.06-5.64-5.18-11.77-7.76-17.68-.65-1.49-1.1-3.24-2.19-4.33-6.76-6.78-10.87-15.07-14.16-23.88-.93-2.49-1.47-5.38-3.09-7.32C266,678.26,263.75,663,260.44,648.05c-6.43-28.94-13.51-57.76-18.87-86.89-6.37-34.61-10.25-69.61-6.72-104.89,2.05-20.55-2.9-40-7.35-59.67-3.27-14.44-6.91-28.9-8.62-43.56-3.26-28,2.49-54.87,13.7-80.38,10.44-23.76,22-47,33.49-70.33,2.69-5.45,6.89-10.18,10.55-15.12.68-.92,2.13-1.28,3.22-1.9,1.72-1,3.73-1.65,5.12-3,4-3.85,6.56-9.12,12.38-11.35,1.71-.65,2.45-4.35,3.23-6.78,1.15-3.57,1.28-7.61,3-10.84,18.67-35,45.13-61.6,82.54-76.36,2.78-1.1,5.48-2.43,8.19-3.69,6.73-3.13,12.86-3.36,19,2a12.79,12.79,0,0,0,9.2,2.52c26.18-3.72,52.32-7.78,78.45-11.89,17.31-2.72,33.1-10.09,48.91-17.08a82.32,82.32,0,0,1,36.31-7.2c30,.78,60.16.46,89.53,7.18C719,58.79,761.8,70.5,803.51,86.39c20.25,7.71,39,17.64,57.87,27.81,41.65,22.46,79.17,50.51,111.76,84.74,25.1,26.37,44.89,56.26,53.07,92.48a145.27,145.27,0,0,1,3.37,25.21c1,21,1.3,42,1.88,63ZM343,243.68c10.07,1.6,19.71,3.1,29.35,4.67,4,.66,5.8,3.67,6.79,7.18,3.32,11.86,6.26,23.83,9.88,35.6,2.88,9.36,5.89,18.78,10,27.64,4.24,9.13,11.81,14.81,22.4,15.07,6,.14,8.38-4,5-8.84a51.58,51.58,0,0,0-8.69-9.57,41.86,41.86,0,0,1-13.77-23.08c-3-13-6.6-25.81-10.28-38.6-1.37-4.75,0-7.9,4-10,10.08-5.13,20.27-10,30.4-15.08,4.72-2.35,8.38-1.22,11.91,2.66,5.37,5.9,10.78,11.87,16.84,17,12,10.18,26.23,15.76,41.69,17.76,3,.39,7.66-1.42,9.3-3.79,1.16-1.67-.94-6.34-2.64-9a10.93,10.93,0,0,0-6.48-4.19c-19-3.85-34.16-14.5-48.4-26.79-7.44-6.42-12.92-14.18-12.25-24.56A32.66,32.66,0,0,0,432.44,177c-3.69-5.51-8-10.65-12.15-15.8s-4.3-5.51.9-10.28c11.61-10.65,24.37-18.93,40.39-21.46,7.23-1.14,9.33-7.28,4.08-12.31-3-2.86-7.65-5.31-11.63-5.42a30,30,0,0,0-14.68,3.87c-8.71,4.82-17.41,10-25,16.35-6.27,5.21-11.53,11.92-16.18,18.69-3.48,5.08-7.29,7.67-13.37,7.92-3.19.13-7.19.66-9.35,2.63-11.42,10.37-25.26,15.86-39.39,21-19.17,7-23.76,22.9-11.21,39,3.58,4.59,4.81,9.42,3.07,14.94-6.7,21.24-4.13,42.15,2.41,62.86.77,2.42,2.26,5.24,4.28,6.48a12.93,12.93,0,0,0,8.25,1.32c.85-.13,1.78-4.34,1.43-6.47-1-6.07-2.53-12.05-4-18C336.93,269,339.92,256.27,343,243.68Zm40.73,432.65c1.56,5.09,2.12,9.69,7,11.73,3.4,1.42,9.73-1.16,12.23-4.9,1.83-2.74,2.83-6,4.74-8.72,4-5.63,1.57-9.75-2.06-14.4-4.95-6.33-10.1-5-14,.05C388,664.76,386.25,670.86,383.68,676.33Zm135.64,95c1.24-.27,3.65-.83,6.07-1.34,4.32-.91,6.53-3.21,4.75-7.74-2-5.05-4-10.13-6.39-15-3-5.94-7.06-6.19-10.65-.43-2.15,3.44-3.3,7.55-4.57,11.47C505.74,766.94,509,771.33,519.33,771.33ZM303.76,620.13c-1.14-1.35-2-3.36-3.5-3.94-2.33-.93-5.73-2.07-7.44-1-3.89,2.32-4.5,8.9-1.3,12.36,3,3.21,6.5,6.34,10.41,8.12a11.2,11.2,0,0,0,9.26-.61c4.26-2.78,7.6-7,11.36-10.6C314.26,616.92,312.07,616.48,303.76,620.13ZM578,854.88c3.17-2.11,6.79-3.45,8.66-6,2.48-3.44.63-7.38-1.82-10.54-3.8-4.9-11.51-6.43-17.19-3.57-7.73,3.9-8.41,9.24-1.42,14.29C569.51,851.36,573.49,852.67,578,854.88ZM469.3,777.62c-2.28-2.61-4.08-5.28-6.46-7.25-2.83-2.35-4.76.42-6.79,2s-4.21,3.21-6.35,4.76c-4.31,3.13-4.76,6.72-1.5,11.6,2.7,4,5.9,3.6,9.33,1.1A68.7,68.7,0,0,0,465,784.1C466.54,782.58,467.48,780.42,469.3,777.62Zm-111.6-46c-7,8.59-7,8.65-5.93,17.52.45,3.73,1,7.54,5.53,8.37,4.67.87,7.89-1.48,10.41-5.93-6.26-2.13-5.39-6.87-4.5-11.76C364,735.69,362.42,732.76,357.7,731.66ZM694.82,809c-.22-6.25-5.54-12.82-10.1-12.47-3.17.24-8.13,5.08-8.08,7.89.05,3.26,7.69,12,10.45,11.95C689.42,816.34,694.89,811.13,694.82,809ZM331.45,551.43c-1.21-1-3.09-3.89-5.56-4.55-3.69-1-9,6-8.66,11.6.13,1.94,2.55,4.86,4.42,5.32C325.37,564.7,331.32,557.82,331.45,551.43ZM457.17,714c2.2-3.81,8.7-3.79,6.33-9.06-1.73-3.85-5.13-.37-7.07.76C452.19,708.21,456.28,710.55,457.17,714Z" transform="translate(-16.07 -16.39)" style="fill: #fff"/>
    <path d="M1292.46,823.83c-12.46,8.27-25.09,13.82-38,18.7-25.82,9.77-51.76,19.21-77.61,28.89a113.74,113.74,0,0,0-13.69,6c-16.21,8.65-33.52,11.41-51.68,10.56-23.12-1.08-46.35-.91-69.34-3.17-14.95-1.47-29.64-6-44.29-9.79-7.52-1.93-14.68-5.25-22-7.81-8.15-2.83-16.48-5.22-24.51-8.35a117.77,117.77,0,0,1-16.94-8.35c-4.79-2.83-6.81-7.49-6.47-13.19a21.82,21.82,0,0,0-.86-5.83c-.82-3.73-2.24-7.39-2.57-11.15-.56-6.47.65-12.07,6.55-16.64,8.3-6.42,15.24-14.21,19.45-24.27,4.07-9.7,12.61-12.89,21.7-7.68,9.71,5.56,20.23,7,30.86,9.07,12.38,2.39,24.61,5.77,36.7,9.39,33.88,10.14,68.81,13.67,103.76,17.11,16.4,1.61,32.79,4,49.23,4.43,13.44.39,27.39,1.93,40.1-5.09,1.38-.76,3.48-.61,5.17-.36,6.71,1,13.35,2.54,20.09,3.28C1270.64,811,1280.84,817.6,1292.46,823.83Z" transform="translate(-16.07 -16.39)" style="fill: #fff"/>
    <path d="M1044.21,692.25c24.85.09,46.45,11,66.06,27a137,137,0,0,0,12.2,8.63c23.32,15.09,46.56,30.33,70.11,45.06,11.41,7.14,23.45,13.27,35.15,20,1.24.71,2.08,2.13,3.1,3.22-1.48.38-3,1.2-4.45,1.08q-47.49-4.12-95-8.5a27.09,27.09,0,0,1-9-2.59c-23.68-11.43-48.73-18.3-74.28-24.24-19.69-4.58-38.82-11.63-58.06-18-13.1-4.32-13.08-4.67-7.14-16.72C995.18,702.13,1016.34,692.36,1044.21,692.25Z" transform="translate(-16.07 -16.39)" style="fill: #fff"/>
    <path d="M579.23,1055c8.49,1,14.65,1.39,20.69,2.47s10.32,4.32,11.83,11.06c4.81,21.55-1.42,40.45-13.77,57.67a120.77,120.77,0,0,1-17.28,19.28c-21.89,19.68-36.11,16.35-53.37-6.44-5.07-6.7-6.44-14.63-5.54-23.17,2.75-26.15,16.76-44.42,39.52-56.14C567.28,1056.7,574.59,1056.2,579.23,1055Z" transform="translate(-16.07 -16.39)" style="fill: #fff"/>
    <path d="M726.81,1074.62c-4.12-.46-8.24-.94-12.36-1.39-3.6-.39-5-2.42-4.14-5.85,2.15-8.7,4.16-17.45,6.79-26a8.39,8.39,0,0,1,5.36-4.81c9.92-2,19.93-3.7,30-4.83a31,31,0,0,1,12.21,1.59c1.69.52,3.52,3.33,3.77,5.29.61,4.86,0,9.87.54,14.76s-1.22,7.93-5.23,10.3A75.07,75.07,0,0,1,726.81,1074.62Z" transform="translate(-16.07 -16.39)" style="fill: #fff"/>
    <path d="M858.49,1112c-7.05.25-8.73-1.79-6.62-8.66s4.37-13.58,6.89-20.24c.62-1.64,2.45-3.85,3.78-3.89s3.38,2,4.1,3.59c3.09,6.78,6,13.65,8.58,20.65,1.73,4.76-.23,7.25-5.31,7.71C866.11,1111.5,862.29,1111.73,858.49,1112Z" transform="translate(-16.07 -16.39)" style="fill: #fff"/>
    <path d="M343,243.68c-3,12.59-6,25.32-2.73,38.6,1.49,6,3,12,4,18,.35,2.14-.58,6.34-1.43,6.47a12.93,12.93,0,0,1-8.25-1.32c-2-1.24-3.52-4.05-4.28-6.48-6.54-20.71-9.11-41.61-2.41-62.86,1.74-5.52.51-10.35-3.07-14.94-12.55-16.09-8-32,11.21-39,14.13-5.14,28-10.63,39.39-21,2.17-2,6.16-2.5,9.35-2.63,6.08-.25,9.89-2.84,13.37-7.92,4.64-6.78,9.91-13.48,16.18-18.69,7.62-6.34,16.32-11.53,25-16.35A30,30,0,0,1,454,111.74c4,.12,8.65,2.57,11.63,5.42,5.25,5,3.15,11.16-4.08,12.31-16,2.53-28.78,10.81-40.39,21.46-5.2,4.77-5.18,5-.9,10.28s8.47,10.29,12.15,15.8a32.66,32.66,0,0,1,5.63,20.81c-.68,10.39,4.81,18.14,12.25,24.56,14.24,12.28,29.41,22.94,48.4,26.79a10.93,10.93,0,0,1,6.48,4.19c1.7,2.65,3.79,7.32,2.64,9-1.63,2.36-6.26,4.18-9.3,3.79-15.46-2-29.72-7.57-41.69-17.76-6.06-5.15-11.47-11.12-16.84-17-3.53-3.88-7.19-5-11.91-2.66-10.13,5-20.32,10-30.4,15.08-4,2.06-5.41,5.21-4,10,3.69,12.79,7.25,25.64,10.28,38.6a41.86,41.86,0,0,0,13.77,23.08,51.58,51.58,0,0,1,8.69,9.57c3.37,4.86,1,9-5,8.84-10.59-.26-18.16-5.94-22.4-15.07-4.11-8.86-7.12-18.27-10-27.64-3.61-11.77-6.56-23.74-9.88-35.6-1-3.52-2.75-6.53-6.79-7.18C362.67,246.78,353,245.28,343,243.68ZM333.28,214c16.24-2.45,28.45-11.24,39-22.77.66-.72.75-2,1.1-3-1-.25-2.19-1-3-.69-10.89,4.09-21.85,8-32.53,12.63C332.44,202.55,331,207.81,333.28,214Zm89.87-16.06,2-.19c-.81-5.77-.75-11.85-2.65-17.23-2.78-7.89-11.61-9.83-18.52-4.43Zm-52.1,30.63c-.55-5.3-3.7-6.6-7.36-5.89-3.89.75-5.78,3.43-4.05,8.07Z" transform="translate(-16.07 -16.39)"/>
    <path d="M383.68,676.33c2.56-5.47,4.31-11.57,7.91-16.24,3.9-5,9.05-6.38,14-.05,3.63,4.64,6.08,8.77,2.06,14.4-1.91,2.67-2.91,6-4.74,8.72-2.5,3.74-8.83,6.32-12.23,4.9C385.81,686,385.24,681.42,383.68,676.33Z" transform="translate(-16.07 -16.39)"/>
    <path d="M519.33,771.33c-10.29,0-13.59-4.39-10.79-13,1.27-3.92,2.43-8,4.57-11.47,3.6-5.76,7.69-5.51,10.65.43,2.42,4.85,4.39,9.93,6.39,15,1.79,4.53-.42,6.83-4.75,7.74C523,770.5,520.57,771.05,519.33,771.33Z" transform="translate(-16.07 -16.39)"/>
    <path d="M303.76,620.13c8.31-3.65,10.5-3.22,18.8,4.28-3.76,3.63-7.1,7.82-11.36,10.6a11.2,11.2,0,0,1-9.26.61c-3.91-1.77-7.43-4.9-10.41-8.12-3.21-3.46-2.59-10,1.3-12.36,1.71-1,5.11.12,7.44,1C301.72,616.77,302.62,618.78,303.76,620.13Z" transform="translate(-16.07 -16.39)"/>
    <path d="M578,854.88c-4.55-2.22-8.53-3.53-11.77-5.86-7-5-6.31-10.39,1.42-14.29,5.68-2.86,13.39-1.33,17.19,3.57,2.45,3.16,4.3,7.1,1.82,10.54C584.82,851.44,581.2,852.77,578,854.88Z" transform="translate(-16.07 -16.39)"/>
    <path d="M469.3,777.62c-1.82,2.8-2.76,5-4.33,6.47a68.7,68.7,0,0,1-7.44,5.75c-3.42,2.5-6.62,2.94-9.33-1.1-3.26-4.88-2.81-8.47,1.5-11.6,2.14-1.55,4.26-3.14,6.35-4.76s4-4.36,6.79-2C465.22,772.35,467,775,469.3,777.62Z" transform="translate(-16.07 -16.39)"/>
    <path d="M357.7,731.66c4.72,1.1,6.27,4,5.51,8.21-.89,4.88-1.75,9.63,4.5,11.76-2.52,4.45-5.74,6.8-10.41,5.93-4.49-.84-5.08-4.64-5.53-8.37C350.69,740.31,350.7,740.25,357.7,731.66Z" transform="translate(-16.07 -16.39)"/>
    <path d="M694.82,809c.08,2.12-5.39,7.33-7.74,7.37-2.76,0-10.4-8.68-10.45-11.95,0-2.82,4.91-7.65,8.08-7.89C689.27,796.19,694.59,802.76,694.82,809Z" transform="translate(-16.07 -16.39)"/>
    <path d="M331.45,551.43c-.14,6.4-6.09,13.28-9.81,12.37-1.87-.46-4.29-3.37-4.42-5.32-.37-5.59,5-12.58,8.66-11.6C328.36,547.54,330.25,550.38,331.45,551.43Z" transform="translate(-16.07 -16.39)"/>
    <path d="M457.17,714c-.89-3.48-5-5.82-.74-8.3,1.94-1.13,5.33-4.62,7.07-.76C465.87,710.24,459.37,710.22,457.17,714Z" transform="translate(-16.07 -16.39)"/>
    <path d="M333.28,214c-2.26-6.19-.84-11.45,4.62-13.8,10.68-4.59,21.64-8.54,32.53-12.63.8-.3,2,.44,3,.69-.35,1-.44,2.24-1.1,3C361.74,202.76,349.52,211.55,333.28,214Z" transform="translate(-16.07 -16.39)" style="fill: #fff"/>
    <path d="M423.15,197.95,404,176.09c6.91-5.39,15.74-3.45,18.52,4.43,1.9,5.39,1.84,11.47,2.65,17.23Z" transform="translate(-16.07 -16.39)" style="fill: #fff"/>
    <path d="M371.05,228.57l-11.42,2.19c-1.72-4.64.16-7.32,4.05-8.07C367.36,222,370.5,223.27,371.05,228.57Z" transform="translate(-16.07 -16.39)" style="fill: #fff"/>
  </g>
</svg>
