<svg id="Layer_1" data-name="Layer 1" xmlns="http://www.w3.org/2000/svg" viewBox="0 0 408.14 393.21">
  <title>pause-btn</title>
  <g>
    <path d="M240.83,392.8c-5.24.9-10.46,1.94-15.73,2.66-4.05.55-8.16.66-12.24,1-6.3.57-12.59,1.54-18.9,1.7-11.43.29-22.93.82-34.28-.11-10.06-.82-20-3.27-29.91-5.46-5.24-1.16-10.26-3.28-15.38-5-2.67-.88-5.4-1.63-8-2.72-3.37-1.43-6.58-3.24-9.93-4.73-2.56-1.14-5.21-2.07-7.84-3-.69-.25-1.67-.07-2.14-.5-4.25-3.83-9.91-5.31-14.41-8.46-4.73-3.31-8.61-7.92-12.49-12.29-2.8-3.16-5-6.87-7.47-10.32-.43-.59-.93-1.38-1.54-1.55-6.18-1.71-8.82-7.38-12.85-11.46-6.31-6.39-8.63-15-12.15-22.87-1.53-3.45-3.33-6.77-5-10.15a7.12,7.12,0,0,1-.95-2c-.94-7.45-2.27-14.89-2.57-22.37a211.06,211.06,0,0,1,.69-23.79,140.92,140.92,0,0,1,2.62-19.49c1.67-7.71,4.1-15.27,6.25-22.87,1.82-6.45,3.41-13,5.69-19.28,1.4-3.84,4-7.21,5.89-10.91,2.52-5,4.67-10.23,7.27-15.21,2.73-5.22,5.81-10.26,8.75-15.38,4.58-8,8.91-16.14,13.83-23.92,3.65-5.77,8-11.15,12.15-16.55A193,193,0,0,1,92.87,92.4c6-6.3,12.51-12.21,19-18.07,6.17-5.58,12.33-11.22,19-16.2A219.06,219.06,0,0,1,151.17,44.9c8.35-4.92,16.92-9.46,25.47-14a49.3,49.3,0,0,1,8.2-3.43c7.25-2.32,14.5-4.71,21.87-6.56,8.46-2.12,17.09-3.55,25.58-5.56,8.2-1.94,16.24-4.63,24.49-6.26,7-1.38,14.23-1.71,21.36-2.49,2.73-.3,5.47-.49,8.18-.87,5.88-.83,11.34.09,17.09,1.93,8.87,2.84,15.68,8.64,23.06,13.67,4.65,3.17,8.88,6.95,13.51,10.14,4,2.77,8.47,4.93,12.51,7.68,6.26,4.27,12.86,8.27,18.34,13.42s9.72,11.19,14.07,17.17c2,2.71,2.83,6.21,4.27,9.32.5,1.09,1.33,2,1.86,3.1,1.39,2.83,2.78,5.66,4,8.55,2.52,5.8,4.94,11.64,7.42,17.46.38.91.87,1.77,1.21,2.7,1.86,5.11,3.77,10.2,5.51,15.35,1,3.08,1.71,6.29,2.7,9.4,1.57,4.9,3.37,9.73,4.89,14.65a77.21,77.21,0,0,1,2.17,9c1.77,9.72,3.74,19.43,5,29.22a163.15,163.15,0,0,1,1.07,20.85c0,10.61-4.52,20.35-6.74,30.53-1.58,7.24-4.85,14.25-8.26,20.9a142.91,142.91,0,0,1-19.86,29.59c-6.63,7.54-12.51,15.74-18.86,23.52-1.68,2.05-4.12,3.47-5.84,5.48-4.14,4.84-7.92,10-12.13,14.78a150.87,150.87,0,0,1-11.49,11.77,121.31,121.31,0,0,1-12.81,10.42c-7,4.82-14.22,9.26-21.44,13.71-4.36,2.69-9.15,4.76-13.3,7.72-6.73,4.81-14.59,6.3-22.24,8.45-7.89,2.22-15.85,4.22-23.82,6.18a69,69,0,0,1-7.37,1Zm-58.34-36.37.19.61c4.38-.94,8.75-1.93,13.15-2.79,4.86-.95,9.8-1.52,14.59-2.71,6.84-1.69,13.49-4.35,20.4-5.57,9-1.6,16.92-5.83,25.21-9.2,5.77-2.34,10.86-6.41,17.35-7a5,5,0,0,0,1.74-.6q8.32-4.2,16.62-8.45c4.93-2.51,10.11-4.62,14.72-7.61,5.92-3.84,11.37-8.4,17-12.64a38.48,38.48,0,0,1,3.86-2.76c5.35-3.06,10.81-5.94,14.44-11.22a36.09,36.09,0,0,1,3.3-4.36c7.51-8,15.58-15.46,21.79-24.6,2.91-4.29,6-8.43,9-12.67,2.16-3.08,4.28-6.18,6.33-9.34a29.38,29.38,0,0,0,3.41-6c1.71-4.9,3.18-9.89,4.51-14.91,1.76-6.63,3.3-13.31,4.88-20a14.77,14.77,0,0,0,.08-2.62c.17-3.33.42-6.66.51-10,.14-5.72,1.85-11.7-2.8-16.7-.52-.56-.1-2.08,0-3.14.11-.8.84-1.67.65-2.33-1.49-5.25-1-10.78-4-16-3.18-5.5-4.49-12.07-6.79-18.11-1-2.75-2-5.7-3.84-7.94-6.36-7.92-13.25-15.4-19.55-23.37-5.47-6.92-10.23-14.41-15.69-21.34a23.08,23.08,0,0,0-7.74-6.08,94.63,94.63,0,0,0-13.33-5c-5.62-1.79-11.27-4.24-17-4.7-12.11-1-24.19-1.21-36.39,1.33-7.68,1.6-15.78,1.42-23.35,4.14-6.74,2.42-13.58,4.65-20.17,7.43-5.08,2.14-9.84,5.05-14.77,7.56-5.32,2.71-11,4.83-16,8.13-10.06,6.74-19.47,14.48-29.61,21.09-9,5.89-15.78,14.1-23.57,21.24-6,5.51-11.33,11.77-17,17.69-5.12,5.36-10.4,10.58-15.33,16.11-3.34,3.74-6.27,7.85-9.25,11.9-3.84,5.22-8.12,10.24-11.17,15.9-4.26,7.9-7.57,16.31-11.28,24.51-2.42,5.35-4.69,10.76-7.28,16-2.46,5-6.09,9.57-7.69,14.79a78.63,78.63,0,0,0-3.3,20c-.24,6.55-1.47,13.71,2.6,19.53,2.39,3.42,2.78,8.44,7.49,10.17.33.12.42.83.66,1.24,1.17,2,1.91,4.52,3.62,5.77,5.47,4,8.17,9.37,9.3,15.84A14.66,14.66,0,0,0,85,323c3.46,5.56,9.8,7.14,15,10.22A174.85,174.85,0,0,0,116,341a104,104,0,0,0,10.54,4.33c4.26,1.42,8.66,2.43,13,3.66,6.37,1.81,12.7,3.74,19.1,5.43,1.87.49,3.93.18,5.86.48,2.39.37,4.73,1.27,7.13,1.43C175.25,356.62,178.88,356.43,182.49,356.43Z" transform="translate(-16.93 -5.39)"/>
    <path d="M263.37,272.08a10,10,0,0,1-.08-1.13c1.37-7.79-1.74-13.54-7.69-18.43-2.69-2.21-4.57-5.43-6.74-8.25a3.6,3.6,0,0,1-.68-2.09c.07-4.47,0-9,.41-13.39,1-10.15,2.18-20.27,3.32-30.41.44-3.94,1.56-7.9,1.33-11.79-.68-11.53,2.34-22.87,1.29-34.44a69.87,69.87,0,0,1,.71-17.29c1-6.11,2.41-12.38,9-15.53,3-1.43,5.59-3.91,8.69-4.88,7.88-2.46,15.19.21,22,4a41.92,41.92,0,0,1,9,7.19,7,7,0,0,1,1.61,5.07c-.9,8.09-1.84,16.2-3.4,24.18-1.34,6.87-.86,13.51,0,20.35.62,5,0,10.17-.07,15.26a40.76,40.76,0,0,1-.4,5.14c-.46,3.1-1.22,6.17-1.54,9.28-.37,3.62-1.31,7.52-.41,10.87,2.4,9,1.27,18,1.85,27,.21,3.33-.22,6.7.1,10,.19,2,1.27,3.87,1.94,5.81.31.9,1,1.91.81,2.72-.86,4.07-1.58,8.24-3.15,12-.63,1.52-3.23,2.63-5.13,3.12-4.17,1.08-7.24,3-9.22,7.07-2.57,5.33-13.17,6.85-17.72,3C264.44,282.47,261.76,277.72,263.37,272.08Z" transform="translate(-16.93 -5.39)"/>
    <path d="M194.47,127c7.42,1,14.52,3.86,19,10.24,2.08,2.93,4.59,6.52,2.5,11.46-1.68,4-1.11,8.89-1.65,13.38-.4,3.27-1,6.51-1.47,9.78-1.41,10-3.15,20-4.08,30.12-.65,7-.21,14.11-.19,21.17,0,8.45.9,17-.09,25.3a71.79,71.79,0,0,0-.36,16.58c.23,2.12-.85,4.59-1.9,6.6-2.58,5-5.48,9.76-8.25,14.63-.18.32-.26.86-.52,1-3.19,1.23-6.33,2.89-9.65,3.46-3.72.64-6.37-1.83-8.41-4.79a3.33,3.33,0,0,0-.74-.84c-3.86-2.75-7.76-5.43-11.58-8.23a47.22,47.22,0,0,1-4.57-3.94,38.7,38.7,0,0,1-3.72-4,3.66,3.66,0,0,1-.82-2.41c.66-5.37,1.44-10.72,2.23-16.08.13-.86.8-1.76.64-2.51-1.72-8.12,1.8-15.65,2.59-23.49,1.29-12.75,3.13-25.44,4.41-38.18.54-5.35.17-10.79.37-16.19.18-5,.72-10,.79-15,0-2-.8-3.92-1.23-5.89-.67-3.09,3.39-10.47,6.47-11.72,3.24-1.31,6.54-2.49,7.69-6.36a2.14,2.14,0,0,1,1.24-1.27C186.87,128.84,190.56,128,194.47,127Z" transform="translate(-16.93 -5.39)"/>
  </g>
</svg>
