<svg id="Layer_1" data-name="Layer 1" xmlns="http://www.w3.org/2000/svg" viewBox="0 0 436.78 398.9">
  <title>play-btn</title>
  <g>
    <path d="M201.25,5.57c8.22-1,16.44-2.82,24.68-2.95,17.51-.27,35,.25,52.56.64,2,0,3.91,1.31,5.89,1.9,5.55,1.66,11.09,3.34,16.67,4.88,6.29,1.75,12.61,3.36,18.92,5a7.77,7.77,0,0,1,2.05.65c7.4,4.52,14.93,8.85,22.11,13.69S358,39.5,364.88,44.52c1.47,1.06,3.11,1.89,4.68,2.81a10.5,10.5,0,0,1,2.51,1.42c3.38,3.65,6.58,7.47,10,11.08,3.94,4.15,8.15,8,12,12.25,3,3.23,5.56,6.8,8.39,10.16,4.81,5.71,9.93,11.18,14.45,17.1,2.84,3.73,4.8,8.12,7.22,12.19,1.61,2.72,3.51,5.28,4.94,8.08a51.77,51.77,0,0,1,4.41,10.22c2,7.8,3.72,15.71,5.23,23.63a37.22,37.22,0,0,1-1.65,19.79,6.51,6.51,0,0,0-.26,1.09c-1.54,8.9-3,17.81-4.65,26.68-1.3,7-2.78,13.93-4.33,20.86-.67,3-1.73,5.92-2.62,8.88-1.29,4.3-2.38,8.67-4,12.87a92.24,92.24,0,0,1-4.72,9.85c-4.56,8.82-8.94,17.74-13.86,26.36-2.76,4.84-6.36,9.22-9.74,13.7-3.77,5-7.2,10.39-11.71,14.63-4.81,4.52-6.59,10.94-11.2,15.42-.35.34-.55,1.12-.89,1.16-4.91.63-5.82,5.9-9.55,8.13-4.11,2.45-7.21,6.55-11.12,9.44-3.16,2.35-6.94,3.85-10.3,6-5.31,3.36-10.62,6.74-15.67,10.46-3.67,2.7-6.58,6.56-10.45,8.83-4.82,2.83-10.33,4.48-15.46,6.82-3.67,1.67-7.19,3.68-10.82,5.44-1.66.81-3.44,1.36-5.16,2.06-7.39,3-14.36,6.83-22.4,8.44-6.77,1.35-13.14,4.63-19.81,6.68-2.91.89-6.12.85-9.2,1.21-9.11,1.08-18.19,2.55-27.33,3.09-7.43.43-14.92-.27-22.39-.48-3.8-.11-7.62,0-11.39-.39-6.75-.69-13.58-1.17-20.17-2.66-9.17-2.08-18.13-5.07-27.22-7.57-4.41-1.21-9-1.76-13.3-3.33-9-3.33-17.91-7-26.76-10.78-5-2.13-9.86-4.6-14.7-7.08-2.72-1.39-5.24-3.18-7.91-4.68-1.48-.83-3.25-1.22-4.61-2.19A47.53,47.53,0,0,1,47.36,357c-4.07-4.08-8.61-7.88-11.83-12.57-4.79-7-8.58-14.67-12.85-22-1.91-3.28-4.51-6.27-5.8-9.76-1.87-5-2.77-10.43-4.19-15.64-1.5-5.51-3.17-11-4.7-16.47-2.26-8.13-6.11-15.77-4.42-24.89,1-5.2-.67-10.85-.95-16.31a50.65,50.65,0,0,1,.51-6c.55-7.93.81-15.9,1.69-23.79a104.84,104.84,0,0,1,3.23-16.79c2-7,4.65-13.73,6.93-20.61,1.59-4.78,2.74-9.73,4.6-14.4,2.2-5.55,4.91-10.9,7.47-16.3,3.06-6.47,6.1-12.94,9.3-19.33,3-6,6.1-12,9.35-17.91,3-5.47,6.52-10.69,9.4-16.23,6.15-11.82,15-21.11,25.49-29.14,4.55-3.5,8.68-7.58,13.35-10.89s10-6.28,15.16-9.27c4.88-2.85,9.73-5.78,14.81-8.22s10.62-4.64,16.06-6.65c9.38-3.46,18.8-6.81,28.29-10,6.58-2.19,13.28-4,19.95-5.92,4.24-1.23,8.51-2.37,12.77-3.55ZM386.84,178.14c-.57-1.18-1.49-2.23-1.53-3.31-.17-4.59,0-9.19-.1-13.78-.22-8.81-.41-17.64-.94-26.43-.16-2.57-1.49-5.06-2.2-7.62-1.13-4.12-1.7-8.47-3.39-12.34a130,130,0,0,0-8.81-16.71,127.44,127.44,0,0,0-11.1-15.29c-2.81-3.3-7.44-5.26-9.64-8.81-3.58-5.78-9.75-8.05-14.25-12.45-1-1-2.62-1.29-4-1.86-1.82-.77-3.68-1.45-5.49-2.26-6.64-3-13-7.09-20-8.77-9.59-2.32-19.59-3.12-29.46-4-3.66-.32-7.44,1.37-11.2,1.58-4.45.25-8.93-.11-13.4-.2-3.24-.07-6.48-.32-9.7-.15-5.31.28-10.6.88-15.9,1.24-2.18.15-4.46-.38-6.54.1-4.29,1-8.42,2.73-12.72,3.66-3.92.85-8,1-12,1.53A50.6,50.6,0,0,0,185.18,54c-4.76,1.64-9.36,3.77-14,5.84-8,3.59-15.94,7.15-23.76,11-3.37,1.67-6.38,4.06-9.54,6.15-5,3.32-10.35,6.27-14.95,10.09-4.83,4-9,8.83-13.37,13.38a42,42,0,0,0-4.08,5.14c-3.33,4.78-6.63,9.59-9.82,14.46-3.7,5.63-7.61,11.15-10.81,17-3.44,6.34-6.2,13.05-9.17,19.64A59,59,0,0,0,73,164c-1.18,3.91-2.16,7.87-3.18,11.82-2,7.61-4,15.2-5.79,22.86-.62,2.65-.16,5.56-.89,8.16-.61,2.18-1.78,4.86-3.54,5.89-2.41,1.42-3.86,2.75-3.91,5.57-.15,9.09-.39,18.19-.53,27.28-.07,4.81.28,9.65-.06,14.43s-1.43,9.78-1.93,14.69a12.26,12.26,0,0,0,.81,4.9c1.57,4.71,3.35,9.36,5,14.06,1,2.91,1.28,6.26,2.91,8.72a67.23,67.23,0,0,0,8.8,10c1.59,1.59,3.77,2.57,5.65,3.87,3.59,2.46,7.07,5.09,10.75,7.4a60.46,60.46,0,0,0,15,6.86c6.44,1.93,12.47,5.33,19,7s13.28,1.79,19.93,2.65c8.1,1.05,16.22,2,24.29,3.29,8.8,1.42,17.75,2.49,26.25,5,10,2.95,20.05,2.77,29.85.77,6.92-1.42,13.61-2.37,20.59-1.73a4.72,4.72,0,0,0,3.22-.58c3.92-3.5,9.17-2.19,13.61-4,7.93-3.31,16.26-5.65,24.26-8.8,2.6-1,4.64-3.4,7-5a35.2,35.2,0,0,1,4.25-2.14c1.63-.8,3.31-1.51,4.89-2.39q4.18-2.32,8.26-4.82c6.25-3.83,12.75-7.33,18.6-11.7,4.2-3.14,7.59-7.4,11.19-11.29,5.65-6.11,11.25-12.26,16.72-18.52,4.32-4.95,9.13-9.67,12.44-15.25a163.22,163.22,0,0,0,12.71-26c2.27-6.1,2.31-13,3.36-19.58a8.25,8.25,0,0,1,.61-2.47c1.72-3.32,3-6.67,2.46-10.55-.17-1.16.31-2.42.4-3.63.23-3.05.61-6.11.57-9.16C386.38,187,382.93,182.37,386.84,178.14Z" transform="translate(-2.61 -2.55)"/>
    <path d="M160.65,235.66c-.55-16.22-.86-32.45-1.72-48.66-.54-10-1.7-20-3-30s-3-19.82-4.48-29.75a68,68,0,0,1-.51-7.82,34.49,34.49,0,0,0-4.48-15.56,8.67,8.67,0,0,1,2-11.21c2.23-1.79,7.51-1.43,10.67.58,6.9,4.39,13.6,9.18,20.82,13,12.89,6.74,26,13,39.23,19.16,9.6,4.45,19.5,8.26,29.24,12.42,11.68,5,23.3,10.14,35,15.05,9.42,3.95,19.08,7.36,28.38,11.56a36.39,36.39,0,0,0,15.33,3.29c3.5,0,7.76.42,10.31,2.4,4.43,3.43,7.89,8.16,11.57,12.5a8.11,8.11,0,0,1,1.56,4.09,6.66,6.66,0,0,1-.65,3.9c-4.56,8-13,11.14-20.06,16-4.9,3.38-9.33,7.42-14.09,11-4.21,3.18-8.65,6.07-12.87,9.23-4.72,3.53-9.23,7.34-14,10.81-5.14,3.74-10.5,7.18-15.69,10.85-4.58,3.24-9,6.73-13.59,9.93-4.22,2.93-8.71,5.47-12.91,8.42s-8.28,6.52-12.65,9.44a71.91,71.91,0,0,0-12.73,11.42c-2.46,2.65-7.08,3.6-10.91,4.6-5.11,1.33-9.18,4.24-11.13,8.72-3.79,8.69-12.32,11.41-20.05,5.82a12.18,12.18,0,0,0-5.55-1.89c-3-.36-6.56-3.6-8-6.14-4.29-7.47-3.06-15.66-3.64-23.57-1-13.17-1.51-26.37-2.23-39.55Zm72.54-84.15-.77,1.42c3,1.79,6.11,3.5,9.09,5.39a32.59,32.59,0,0,1,5.75,4.25c2.39,2.4,6,2.31,8.85-1.12ZM256,235l.85.67c2.78-1.77,5.65-3.42,8.3-5.37a10.17,10.17,0,0,0,3-3.73c.2-.43-1.11-2.27-1.78-2.3-2-.09-5-.3-5.72.81C258.56,228,257.47,231.61,256,235ZM180.74,281.2l-1.9.6.95,4.22c.68-.38,2-.8,1.94-1.12A19.09,19.09,0,0,0,180.74,281.2Z" transform="translate(-2.61 -2.55)"/>
    <path d="M266.33,224.23c.67,0,2,1.87,1.78,2.3" transform="translate(-2.61 -2.55)" style="fill: #fff"/>
    <path d="M256.84,235.63,256,235" transform="translate(-2.61 -2.55)" style="fill: #fff"/>
  </g>
</svg>
